<svg width="20" height="20" viewBox="0 0 20 20" fill="none" xmlns="http://www.w3.org/2000/svg">
<path d="M4.03955 10.3827C4.60443 10.305 5.17769 10.4491 5.63916 10.7841C5.87033 10.9514 6.06536 11.1635 6.2124 11.4081C6.35952 11.6528 6.45533 11.9251 6.49463 12.2079C6.53478 12.4863 6.5193 12.7699 6.44775 13.0419C6.37623 13.3138 6.25044 13.5684 6.07861 13.7909V13.7919L4.9624 15.285L4.90674 15.3593H5.62549C5.86154 15.3594 6.08747 15.4541 6.25439 15.621C6.42131 15.7879 6.51599 16.0138 6.51611 16.2499C6.51611 16.4861 6.42142 16.7127 6.25439 16.8798C6.08747 17.0467 5.86153 17.1404 5.62549 17.1405H3.12549C2.9603 17.1404 2.79826 17.0945 2.65771 17.0077C2.5172 16.9209 2.4036 16.7969 2.32959 16.6493C2.25559 16.5016 2.22418 16.3363 2.23877 16.1718C2.25336 16.0073 2.31288 15.85 2.41162 15.7177L4.65186 12.7206L4.66162 12.7079C4.68947 12.6731 4.7112 12.6337 4.72314 12.5907C4.72918 12.569 4.73238 12.5467 4.73389 12.5243L4.73193 12.4569L4.71436 12.3885C4.70626 12.3662 4.6957 12.3444 4.68311 12.3241C4.65808 12.2838 4.6245 12.2485 4.58545 12.2216C4.49919 12.1593 4.39219 12.1321 4.28662 12.1454C4.18055 12.1589 4.08322 12.2124 4.01514 12.2948V12.2958C4.00433 12.3094 3.99454 12.3237 3.98584 12.3387L3.9624 12.3856C3.87947 12.6047 3.71342 12.7831 3.50049 12.8807C3.28764 12.9782 3.0447 12.9882 2.82471 12.9081C2.60461 12.8279 2.42503 12.6637 2.32471 12.452C2.23694 12.2667 2.2161 12.0577 2.26416 11.8602L2.28857 11.7772C2.34521 11.6216 2.42028 11.4737 2.51123 11.3358L2.60693 11.201C2.96074 10.7537 3.47453 10.4605 4.03955 10.3827ZM9.06299 14.1093H16.8755C17.1115 14.1094 17.3375 14.2041 17.5044 14.371C17.6713 14.5379 17.766 14.7638 17.7661 14.9999C17.7661 15.2361 17.6714 15.4627 17.5044 15.6298C17.3375 15.7967 17.1115 15.8904 16.8755 15.8905H9.06299C8.82678 15.8905 8.60013 15.7968 8.43311 15.6298C8.26611 15.4627 8.17236 15.2361 8.17236 14.9999C8.17249 14.7639 8.26623 14.5379 8.43311 14.371C8.60013 14.2039 8.82678 14.1093 9.06299 14.1093ZM9.06299 9.10925H16.8755C17.1115 9.10936 17.3375 9.20407 17.5044 9.37097C17.6713 9.53788 17.766 9.76384 17.7661 9.99988C17.7661 10.2361 17.6714 10.4627 17.5044 10.6298C17.3375 10.7967 17.1115 10.8904 16.8755 10.8905H9.06299C8.82678 10.8905 8.60013 10.7968 8.43311 10.6298C8.26611 10.4627 8.17236 10.2361 8.17236 9.99988C8.17249 9.76387 8.26623 9.53788 8.43311 9.37097C8.60013 9.20395 8.82678 9.10925 9.06299 9.10925ZM4.41553 2.23621C4.56699 2.24309 4.71427 2.28835 4.84326 2.36804C4.97233 2.44781 5.07891 2.55976 5.15283 2.69226C5.20825 2.79166 5.24391 2.90038 5.2583 3.01257L5.26611 3.12585V8.12488C5.26611 8.36109 5.17142 8.58774 5.00439 8.75476C4.83747 8.92166 4.61153 9.0154 4.37549 9.0155C4.13928 9.0155 3.91263 8.92179 3.74561 8.75476C3.57861 8.58774 3.48486 8.36107 3.48486 8.12488V4.56628L3.42334 4.58582C3.21155 4.65479 2.98156 4.64189 2.77881 4.54968C2.57605 4.45746 2.41484 4.29274 2.32764 4.08777C2.24062 3.88302 2.23317 3.65305 2.30713 3.44324C2.38109 3.23378 2.5303 3.05786 2.72607 2.953L2.72705 2.95398L3.97705 2.32898C4.1128 2.26121 4.26396 2.22934 4.41553 2.23621ZM9.06299 4.10925H16.8755C17.1115 4.10936 17.3375 4.20407 17.5044 4.37097C17.6713 4.53788 17.766 4.76384 17.7661 4.99988C17.7661 5.23609 17.6714 5.46274 17.5044 5.62976C17.3375 5.79666 17.1115 5.8904 16.8755 5.8905H9.06299C8.82678 5.8905 8.60013 5.79679 8.43311 5.62976C8.26611 5.46274 8.17236 5.23607 8.17236 4.99988C8.17249 4.76387 8.26623 4.53788 8.43311 4.37097C8.60013 4.20395 8.82678 4.10925 9.06299 4.10925Z" fill="#535862" stroke="#535862" stroke-width="0.09375"/>
</svg>
