<svg width="20" height="20" viewBox="0 0 20 20" fill="none" xmlns="http://www.w3.org/2000/svg">
<path d="M5 16.6094H15C15.2362 16.6094 15.4629 16.7031 15.6299 16.8701C15.7969 17.0371 15.8906 17.2638 15.8906 17.5C15.8906 17.7362 15.7969 17.9629 15.6299 18.1299C15.4629 18.2969 15.2362 18.3906 15 18.3906H5C4.76379 18.3906 4.53714 18.2969 4.37012 18.1299C4.20309 17.9629 4.10938 17.7362 4.10938 17.5C4.10938 17.2638 4.20309 17.0371 4.37012 16.8701C4.53714 16.7031 4.76379 16.6094 5 16.6094ZM14.375 3.48438C14.6112 3.48438 14.8379 3.57809 15.0049 3.74512C15.1719 3.91214 15.2656 4.13879 15.2656 4.375V10L15.2588 10.2607C15.193 11.5618 14.6472 12.7961 13.7217 13.7217C12.7345 14.7089 11.3961 15.2642 10 15.2656L9.73926 15.2588C8.43815 15.193 7.20387 14.6472 6.27832 13.7217C5.29114 12.7345 4.73582 11.3961 4.73438 10V4.375C4.73438 4.13879 4.82809 3.91214 4.99512 3.74512C5.16214 3.57809 5.38879 3.48438 5.625 3.48438C5.86121 3.48438 6.08786 3.57809 6.25488 3.74512C6.42191 3.91214 6.51562 4.13879 6.51562 4.375V10C6.51562 10.9241 6.88269 11.8104 7.53613 12.4639C8.18958 13.1173 9.07589 13.4844 10 13.4844C10.9241 13.4844 11.8104 13.1173 12.4639 12.4639C13.1173 11.8104 13.4844 10.9241 13.4844 10V4.375C13.4844 4.13879 13.5781 3.91214 13.7451 3.74512C13.9121 3.57809 14.1388 3.48438 14.375 3.48438Z" fill="#535862" stroke="#535862" stroke-width="0.09375"/>
</svg>
