<svg width="20" height="20" viewBox="0 0 20 20" fill="none" xmlns="http://www.w3.org/2000/svg">
<path d="M6.25 2.85938H11.5625C12.2638 2.85963 12.9505 3.05922 13.543 3.43457C14.1355 3.81003 14.6095 4.34628 14.9092 4.98047C15.2088 5.61454 15.3223 6.32059 15.2363 7.0166C15.1503 7.71272 14.8679 8.37001 14.4229 8.91211L14.3877 8.95605L14.4365 8.9834C15.2165 9.41334 15.8314 10.0905 16.1846 10.9082C16.5376 11.7258 16.6095 12.6375 16.3877 13.5C16.1659 14.3625 15.6636 15.127 14.96 15.6729C14.2562 16.2188 13.3906 16.5152 12.5 16.5156H6.25C6.01379 16.5156 5.78714 16.4219 5.62012 16.2549C5.45309 16.0879 5.35938 15.8612 5.35938 15.625V3.75C5.35938 3.51379 5.45309 3.28714 5.62012 3.12012C5.78714 2.95309 6.01379 2.85938 6.25 2.85938ZM7.14062 14.7344H12.5C13.0926 14.7344 13.6611 14.4991 14.0801 14.0801C14.4991 13.6611 14.7344 13.0926 14.7344 12.5C14.7344 11.9074 14.4991 11.3389 14.0801 10.9199C13.6611 10.5009 13.0926 10.2656 12.5 10.2656H7.14062V14.7344ZM7.14062 8.48438H11.5625C12.0722 8.48438 12.5615 8.2823 12.9219 7.92188C13.2823 7.56145 13.4844 7.07221 13.4844 6.5625C13.4844 6.05279 13.2823 5.56355 12.9219 5.20312C12.5615 4.8427 12.0722 4.64062 11.5625 4.64062H7.14062V8.48438Z" fill="#535862" stroke="#535862" stroke-width="0.09375"/>
</svg>
