<svg width="20" height="20" viewBox="0 0 20 20" fill="none" xmlns="http://www.w3.org/2000/svg">
<path d="M8.75 3.48438H15C15.2362 3.48437 15.4629 3.57809 15.6299 3.74512C15.7969 3.91214 15.8906 4.13879 15.8906 4.375C15.8906 4.61121 15.7969 4.83786 15.6299 5.00488C15.4629 5.17191 15.2362 5.26562 15 5.26562H12.5166L9.36035 14.7344H11.25C11.4862 14.7344 11.7129 14.8281 11.8799 14.9951C12.0469 15.1621 12.1406 15.3888 12.1406 15.625C12.1406 15.8612 12.0469 16.0879 11.8799 16.2549C11.7129 16.4219 11.4862 16.5156 11.25 16.5156H5C4.76379 16.5156 4.53714 16.4219 4.37012 16.2549C4.20309 16.0879 4.10938 15.8612 4.10938 15.625C4.10938 15.3888 4.20309 15.1621 4.37012 14.9951C4.53714 14.8281 4.76379 14.7344 5 14.7344H7.4834L10.6396 5.26562H8.75C8.51379 5.26562 8.28714 5.17191 8.12012 5.00488C7.95309 4.83786 7.85938 4.61121 7.85938 4.375C7.85938 4.13879 7.95309 3.91214 8.12012 3.74512C8.28714 3.57809 8.51379 3.48438 8.75 3.48438Z" fill="#535862" stroke="#535862" stroke-width="0.09375"/>
</svg>
